<mxfile host="65bd71144e">
    <diagram id="Wm0VJ0_QzSyTA3vTyAXN" name="PÃ¡gina-1">
        <mxGraphModel dx="571" dy="427" grid="1" gridSize="10" guides="1" tooltips="1" connect="1" arrows="1" fold="1" page="1" pageScale="1" pageWidth="827" pageHeight="1169" math="0" shadow="0">
            <root>
                <mxCell id="0"/>
                <mxCell id="1" parent="0"/>
                <mxCell id="2" value="" style="rounded=0;whiteSpace=wrap;html=1;" vertex="1" parent="1">
                    <mxGeometry x="40" y="120" width="110" height="60" as="geometry"/>
                </mxCell>
                <mxCell id="3" value="n1&amp;nbsp; &amp;nbsp; &amp;nbsp; &amp;nbsp;p1&lt;br&gt;n2&amp;nbsp; &amp;nbsp; &amp;nbsp; &amp;nbsp;p2&lt;br&gt;n3&amp;nbsp; &amp;nbsp; &amp;nbsp; &amp;nbsp;p3" style="text;html=1;align=center;verticalAlign=middle;resizable=0;points=[];autosize=1;strokeColor=none;fillColor=none;" vertex="1" parent="1">
                    <mxGeometry x="60" y="120" width="70" height="60" as="geometry"/>
                </mxCell>
                <mxCell id="4" value="" style="endArrow=classic;html=1;" edge="1" parent="1" target="5">
                    <mxGeometry width="50" height="50" relative="1" as="geometry">
                        <mxPoint x="150" y="149.5" as="sourcePoint"/>
                        <mxPoint x="230" y="149.5" as="targetPoint"/>
                    </mxGeometry>
                </mxCell>
                <mxCell id="5" value="" style="rounded=0;whiteSpace=wrap;html=1;" vertex="1" parent="1">
                    <mxGeometry x="250" y="120" width="330" height="60" as="geometry"/>
                </mxCell>
                <mxCell id="6" value="media_ponderada=(n1*p1+n2*p2+n3*p3)/(n1+n2+n3)" style="text;html=1;align=center;verticalAlign=middle;resizable=0;points=[];autosize=1;strokeColor=none;fillColor=none;" vertex="1" parent="1">
                    <mxGeometry x="250" y="135" width="310" height="30" as="geometry"/>
                </mxCell>
            </root>
        </mxGraphModel>
    </diagram>
</mxfile>